<svg width="48" height="48" viewBox="0 0 48 48" fill="none" xmlns="http://www.w3.org/2000/svg">
<rect x="0.5" y="0.5" width="47" height="47" rx="23.5" stroke="#E0E0E0"/>
<path d="M32.1705 18.75H30.3095L25.7435 23.314C25.9008 23.7148 25.9152 24.1575 25.7845 24.5677C25.6537 24.9779 25.3857 25.3306 25.0255 25.5664C24.6653 25.8022 24.2348 25.9068 23.8066 25.8626C23.3783 25.8184 22.9783 25.6281 22.6739 25.3237C22.3694 25.0192 22.1791 24.6192 22.1349 24.191C22.0907 23.7627 22.1953 23.3323 22.4311 22.9721C22.6669 22.6119 23.0196 22.3438 23.4298 22.2131C23.84 22.0823 24.2827 22.0968 24.6835 22.254L29.2485 17.689V15.828C29.2486 15.579 29.3475 15.3402 29.5235 15.164L31.2535 13.434C31.2855 13.4018 31.3257 13.3789 31.3698 13.3678C31.4138 13.3567 31.4601 13.3578 31.5035 13.371C31.5925 13.397 31.6585 13.471 31.6765 13.562L32.1365 15.863L34.4365 16.323C34.5265 16.341 34.6005 16.407 34.6265 16.496C34.6396 16.5393 34.6408 16.5852 34.6299 16.6291C34.619 16.6729 34.5964 16.713 34.5645 16.745L32.8335 18.475C32.6576 18.6508 32.4192 18.7497 32.1705 18.75Z" fill="#0F3057"/>
<path d="M14.625 24C14.625 26.4864 15.6127 28.871 17.3709 30.6291C19.129 32.3873 21.5136 33.375 24 33.375C25.2311 33.375 26.4502 33.1325 27.5877 32.6614C28.7251 32.1902 29.7586 31.4997 30.6291 30.6291C31.4997 29.7586 32.1902 28.7251 32.6614 27.5877C33.1325 26.4502 33.375 25.2311 33.375 24C33.375 23.102 33.249 22.234 33.014 21.413C32.9673 21.2245 32.9955 21.0252 33.0928 20.8571C33.19 20.689 33.3487 20.5651 33.5353 20.5116C33.722 20.4581 33.9222 20.4791 34.0937 20.5702C34.2653 20.6613 34.3948 20.8154 34.455 21C34.729 21.954 34.875 22.96 34.875 24C34.875 30.006 30.006 34.875 24 34.875C17.994 34.875 13.125 30.006 13.125 24C13.125 17.994 17.994 13.125 24 13.125C25.015 13.124 26.024 13.265 27 13.544C27.0952 13.5707 27.1841 13.6159 27.2617 13.6771C27.3393 13.7383 27.4041 13.8142 27.4523 13.9005C27.5005 13.9868 27.5311 14.0818 27.5425 14.18C27.5538 14.2782 27.5457 14.3776 27.5184 14.4726C27.4912 14.5677 27.4455 14.6564 27.3839 14.7336C27.3223 14.8109 27.246 14.8753 27.1595 14.923C27.0729 14.9707 26.9778 15.0008 26.8795 15.0116C26.7813 15.0224 26.6819 15.0137 26.587 14.986C25.7457 14.7459 24.8749 14.6244 24 14.625C21.5136 14.625 19.129 15.6127 17.3709 17.3709C15.6127 19.129 14.625 21.5136 14.625 24Z" fill="#0F3057"/>
<path d="M19.1238 24C19.1266 24.6623 19.2643 25.3171 19.5286 25.9244C19.7929 26.5317 20.1782 27.0788 20.661 27.5322C21.1438 27.9856 21.7139 28.3359 22.3366 28.5616C22.9593 28.7874 23.6214 28.8838 24.2826 28.8451C24.9438 28.8064 25.5902 28.6333 26.1823 28.3364C26.7744 28.0396 27.2997 27.6252 27.7263 27.1185C28.1529 26.6118 28.4717 26.0235 28.6633 25.3895C28.8549 24.7555 28.9153 24.0891 28.8408 23.431C28.8198 23.2977 28.8352 23.1612 28.8855 23.036C28.9357 22.9108 29.0189 22.8015 29.1262 22.7197C29.2335 22.6379 29.361 22.5866 29.495 22.5714C29.6291 22.5561 29.7648 22.5774 29.8878 22.633C30.1388 22.745 30.3078 22.984 30.3298 23.258C30.485 24.5732 30.2267 25.9042 29.5907 27.0658C28.9546 28.2275 27.9725 29.1621 26.7807 29.7398C25.589 30.3175 24.2469 30.5096 22.941 30.2894C21.635 30.0692 20.4301 29.4476 19.4938 28.511C18.5577 27.5754 17.9359 26.3717 17.7147 25.0668C17.4935 23.762 17.6838 22.4206 18.2593 21.2288C18.8348 20.037 19.7668 19.0538 20.9263 18.4156C22.0857 17.7773 23.415 17.5157 24.7298 17.667C24.8292 17.6762 24.9257 17.7052 25.0138 17.7522C25.1018 17.7992 25.1796 17.8633 25.2425 17.9408C25.3055 18.0183 25.3523 18.1075 25.3804 18.2034C25.4084 18.2992 25.417 18.3996 25.4056 18.4988C25.3943 18.598 25.3633 18.6939 25.3145 18.7809C25.2656 18.868 25.1998 18.9444 25.1211 19.0057C25.0423 19.067 24.952 19.1119 24.8557 19.1379C24.7593 19.1639 24.6587 19.1704 24.5598 19.157C23.8768 19.078 23.1848 19.1444 22.5293 19.3517C21.8738 19.559 21.2696 19.9027 20.7562 20.36C20.2429 20.8173 19.832 21.3781 19.5507 22.0054C19.2694 22.6327 19.1239 23.3125 19.1238 24Z" fill="#0F3057"/>
</svg>
