<svg width="28" height="28" viewBox="0 0 28 28" fill="none" xmlns="http://www.w3.org/2000/svg">
<path d="M25.6654 20.5415C24.7484 23.2015 22.0032 27.9113 19.1752 27.9627C17.2992 27.9988 16.696 26.8508 14.5517 26.8508C12.4085 26.8508 11.7377 27.9277 9.96437 27.9977C6.9637 28.1132 2.33203 21.1995 2.33203 15.1702C2.33203 9.632 6.19136 6.88683 9.56303 6.83667C11.3714 6.804 13.0794 8.05583 14.1819 8.05583C15.289 8.05583 17.3634 6.55083 19.5439 6.77133C20.4562 6.80983 23.0194 7.13883 24.6644 9.5445C20.2999 12.3935 20.98 18.3517 25.6654 20.5415ZM19.573 0C16.276 0.133 13.5857 3.59217 13.9614 6.45283C17.0087 6.68967 19.9324 3.27367 19.573 0Z" fill="#12121D"/>
</svg>
